<svg xmlns="http://www.w3.org/2000/svg" width="8" height="15" viewBox="0 0 8 15" fill="none">
  <path d="M1 7.72393C1.50635 7.66042 2.0632 7.53998 2.48107 7.2989C3.15421 6.91055 3.6108 6.21714 3.94049 5.62439C4.26365 5.04337 4.43672 4.40674 4.57276 3.7843C4.76181 2.91935 4.97846 2.02782 5.04913 1.15049C5.05088 1.12871 5.05346 0.898332 5.05346 1.05319C5.05346 1.31608 5.00943 1.55899 4.95385 1.8179C4.86793 2.21813 4.87366 2.62558 4.84992 3.02983C4.82944 3.37843 4.78335 3.72522 4.78063 4.07448C4.77628 4.63266 4.67119 5.28494 4.86507 5.82751C5.01818 6.25599 5.46544 6.60467 5.83513 6.92678C6.08473 7.14426 6.30834 7.34535 6.65145 7.47471C6.7646 7.51737 6.87644 7.55286 6.9979 7.57201C7.03229 7.57743 6.63287 7.67686 6.59516 7.68467C6.21781 7.76275 5.84128 7.88981 5.51683 8.0619C5.15633 8.25312 5.02385 8.53529 4.86291 8.84027C4.43403 9.65298 4.32373 10.4817 4.28261 11.3529C4.25037 12.0359 4.29821 12.72 4.25446 13.4029C4.24266 13.5871 4.21756 13.7691 4.19816 13.9526C4.18194 14.106 4.19983 13.8386 4.20033 13.8314C4.27143 12.7804 4.39857 11.6781 4.22631 10.6291C4.15647 10.2039 3.97083 9.80159 3.86254 9.38307C3.78778 9.09417 3.70846 8.85632 3.48577 8.61495C3.10662 8.20397 2.79006 7.95555 2.13895 7.85365C1.816 7.80311 1.48347 7.8161 1.1559 7.8161" stroke="#FFD600" stroke-width="2" stroke-linecap="round"/>
</svg>